<?xml version="1.0" encoding="UTF-8" standalone="no"?>
<svg
   viewBox="0 0 283.78 306.36"
   version="1.1"
   id="svg6"
   sodipodi:docname="OpenBlockDesktop.svg"
   inkscape:version="1.3.2 (091e20e, 2023-11-25, custom)"
   xmlns:inkscape="http://www.inkscape.org/namespaces/inkscape"
   xmlns:sodipodi="http://sodipodi.sourceforge.net/DTD/sodipodi-0.dtd"
   xmlns="http://www.w3.org/2000/svg"
   xmlns:svg="http://www.w3.org/2000/svg"
   xmlns:rdf="http://www.w3.org/1999/02/22-rdf-syntax-ns#"
   xmlns:cc="http://creativecommons.org/ns#"
   xmlns:dc="http://purl.org/dc/elements/1.1/">
  <sodipodi:namedview
     id="namedview6"
     pagecolor="#ffffff"
     bordercolor="#000000"
     borderopacity="0.25"
     inkscape:showpageshadow="2"
     inkscape:pageopacity="0.0"
     inkscape:pagecheckerboard="0"
     inkscape:deskcolor="#d1d1d1"
     inkscape:zoom="1.3399269"
     inkscape:cx="52.614809"
     inkscape:cy="155.6055"
     inkscape:window-width="1920"
     inkscape:window-height="1017"
     inkscape:window-x="-8"
     inkscape:window-y="-8"
     inkscape:window-maximized="1"
     inkscape:current-layer="svg6" />
  <defs
     id="defs1">
    <style
       id="style1">.a{fill:#ffbc47;}.b{fill:#cf8b17;}.c{fill:#ffab19;}.d{fill:#fff;}</style>
    <clipPath
       id="be806ba69f">
      <path
         d="m 77.054688,69.515625 h 18.9375 v 27.761719 h -18.9375 z m 0,0"
         clip-rule="nonzero"
         id="path1-5" />
    </clipPath>
    <clipPath
       id="216fcf4ff0">
      <path
         d="M 77,58.125 H 90 V 66 H 77 Z m 0,0"
         clip-rule="nonzero"
         id="path2-5" />
    </clipPath>
    <clipPath
       id="f1f1d4c6a1">
      <path
         d="M 57.625,79.320312 H 76 V 97.277344 H 57.625 Z m 0,0"
         clip-rule="nonzero"
         id="path3-7" />
    </clipPath>
    <clipPath
       id="6ff73a9083">
      <path
         d="M 58,58.125 H 76 V 74 H 58 Z m 0,0"
         clip-rule="nonzero"
         id="path4-3" />
    </clipPath>
    <clipPath
       id="a6391c9fab">
      <path
         d="M 56.835938,74 H 59 v 4 h -2.164062 z m 0,0"
         clip-rule="nonzero"
         id="path5-0" />
    </clipPath>
    <clipPath
       id="4a0bec40c7">
      <path
         d="m 93,55 h 14 V 97.335938 H 93 Z m 0,0"
         clip-rule="nonzero"
         id="path6-0" />
    </clipPath>
    <clipPath
       id="3bb8ad6a92">
      <path
         d="m 92,55 h 15 V 97.335938 H 92 Z m 0,0"
         clip-rule="nonzero"
         id="path7" />
    </clipPath>
    <clipPath
       id="fd5a1ab338">
      <path
         d="M 47,55 H 61 V 97.335938 H 47 Z m 0,0"
         clip-rule="nonzero"
         id="path8" />
    </clipPath>
    <clipPath
       id="d5f40574dd">
      <path
         d="M 47,55 H 62 V 97.335938 H 47 Z m 0,0"
         clip-rule="nonzero"
         id="path9" />
    </clipPath>
    <clipPath
       id="ca6c7c9a05">
      <path
         d="m 37,36.230469 h 79 V 67 H 37 Z m 0,0"
         clip-rule="nonzero"
         id="path10" />
    </clipPath>
    <clipPath
       id="3ab8adb343">
      <path
         d="m 37,36.230469 h 79.36328 V 68 H 37 Z m 0,0"
         clip-rule="nonzero"
         id="path11" />
    </clipPath>
  </defs>
  <title
     id="title1">SaungStudioDesktop</title>
  <path
     class="a"
     d="m 0.2389236,249.86357 c 0,-2 0,-4 0,-6 q 0,-102.43 0,-204.920001 a 37.76,37.76 0 0 1 0.66,-7.630001 22,22 0 0 1 21.9700004,-17.82 H 176.91893 c 28.08,0 56.15,0.06 84.23,-0.06 a 22.33,22.33 0 0 1 22.83,22.420001 q -0.08,98.000001 -0.05,196.050001 c 0,6.4 -0.06,12.79 -0.09,19.19 -2.36,11 -11,17.94 -22.26,18 -12.39,0 -24.79,0.13 -37.18,-0.06 a 11,11 0 0 0 -9.75,4.9 c -5.36,7.17 -11,14.11 -16.54,21.17 a 27.39,27.39 0 0 1 -3.63,3.81 10.93,10.93 0 0 1 -7.43,2.84 q -44.73,0 -89.460003,0 c -4.64,0 -8.000003,-2.29 -10.770003,-5.8 -5.61,-7.18 -11.29,-14.31 -16.83,-21.55 a 12.39,12.39 0 0 0 -11,-5.39 c -12.15,0.28 -24.3,0.22 -36.45,0.05 -9.3,-0.17 -16.1100004,-4.63 -20.5500004,-12.7 a 24.38,24.38 0 0 1 -1.75,-5.55"
     id="path1"
     style="fill:#ffe6d5" />
  <path
     class="b"
     d="M0,249.14"
     id="path2" />
  <path
     class="b"
     d="M0,237.92a17.51,17.51,0,0,0,3,6c4.41,7,10.68,10.89,19,11,12.63.13,25.27.21,37.9,0,4.49-.09,7.42,1.85,9.94,5.07,6,7.66,11.87,15.39,17.94,23a12.14,12.14,0,0,0,10,4.75c29.1-.08,58.21-.15,87.31.05,5.37,0,8.94-2.26,12-6.12,5.14-6.5,10.23-13,15.36-19.54a43.75,43.75,0,0,1,3.57-4.49,8.71,8.71,0,0,1,6.43-2.65c13,.06,25.91,0,38.86,0a22.25,22.25,0,0,0,21.38-15.1,5.42,5.42,0,0,1,.93-2.17c0,4.55.32,9.12.08,13.66a21.72,21.72,0,0,1-20.46,20.46c-11.26.56-22.54.27-33.81.14-4.13,0-7.4,1.07-10.12,4.3-7.42,8.8-15,17.47-22.5,26.2a10.49,10.49,0,0,1-8.55,3.92q-46.3-.13-92.6,0a10.73,10.73,0,0,1-8.74-4.06c-7.23-8.44-14.6-16.76-21.68-25.33-3.1-3.75-6.68-5.16-11.48-5-10.15.26-20.31.14-30.46.08-6.66,0-12.58-2.08-17.23-7.07-3.14-3.36-6-8.23-6-12.94"
     id="path3"
     style="fill:#0000ff" />
  <path
     class="d"
     d="m 44.140632,107.47114 c -3.777508,0 -7.454282,0 -11.181424,0 -4.092301,0 -6.887656,-2.4393 -9.166753,-5.59223 a 6.0188298,6.2020498 0 0 1 -0.881419,-3.892496 c 0,-6.4875 0,-13.0788 0,-19.618196 a 7.4794663,7.7071498 0 0 1 3.928609,-6.7989 17.628372,18.165 0 0 1 9.36822,-2.62095 c 6.648415,0 13.296829,0 19.945244,0 1.460636,0 2.165771,-0.23355 2.707214,-1.9722 a 35.256744,36.329999 0 0 1 4.041934,-8.758124 26.442558,27.247499 0 0 1 7.781667,-7.5255 19.315659,19.90365 0 0 1 11.231791,-3.360525 q 54.698315,0.06488 109.396635,0 a 22.513949,23.199299 0 0 1 12.22653,4.035225 c 4.83521,3.101025 7.55502,7.785 9.8593,12.806325 a 1.5991452,1.647825 0 0 1 0.23924,0.557925 c 0,1.4532 0.0881,3.101024 1.33472,3.892499 1.24658,0.791475 2.75758,0.28545 4.14267,0.298425 4.43227,0 8.81418,0.168675 13.29683,0 a 21.204413,21.849899 0 0 1 8.22237,1.1937 c 4.07971,1.53105 7.10172,4.02225 7.00098,9.510675 -0.10073,6.020401 -0.17628,12.040801 0,18.061201 0.12592,3.892496 -1.82579,6.176096 -4.63374,8.057466 a 11.093283,11.430975 0 0 1 -6.5225,1.79055 c -6.54768,-0.1557 -13.09536,-0.0649 -19.64304,0 -2.31687,0 -2.35465,0 -2.36724,2.42633 0,4.671 0,9.342 0,14.013 0,2.77666 0,2.80261 2.90868,2.80261 q 8.81419,0 17.52764,0 a 17.036562,17.555175 0 0 1 9.30526,2.81557 7.5550165,7.7849998 0 0 1 3.34939,6.60428 c 0.0882,6.8508 0,13.7016 0,20.5524 a 5.678854,5.8517249 0 0 1 -1.69987,4.152 12.138393,12.5079 0 0 1 -9.77116,4.43745 c -6.29585,-0.23355 -12.69243,-0.0779 -19.03864,0 -2.51834,0 -2.59389,0 -2.59389,2.47822 q 0,7.6293 0,15.2586 c 0,2.20575 0,2.27063 2.20355,2.27063 6.84988,0 13.69976,0.0779 20.54964,0 4.26859,0 7.1269,2.34847 9.5571,5.48842 a 5.8425461,6.0203998 0 0 1 0.83105,3.8925 c 0,6.228 -0.11333,12.456 0,18.684 0.11333,5.38463 -3.14792,7.90178 -7.11431,9.45878 a 20.58742,21.214124 0 0 1 -7.94536,1.07692 c -5.23814,-0.14272 -10.47629,0 -15.71443,0 -2.10281,0 -2.65685,0.45413 -3.09756,2.46525 a 24.717496,25.469924 0 0 1 -23.62202,19.4625 c -36.51591,-0.12975 -72.93109,-0.0778 -109.396628,0 a 17.76688,18.307725 0 0 1 -8.990469,-3.3216 28.734246,29.608949 0 0 1 -5.187778,-3.59407 29.502339,30.400424 0 0 1 -7.743892,-13.27343 c -0.491076,-1.56997 -1.070294,-1.88137 -2.417606,-1.88137 -6.950615,0 -13.850863,0 -20.851845,0 a 15.261133,15.7257 0 0 1 -10.073355,-3.8925 7.0765321,7.2919498 0 0 1 -2.518339,-5.43653 c 0,-6.8508 0,-13.7016 0,-20.5524 a 5.5025703,5.6700749 0 0 1 1.548778,-3.8925 12.176168,12.546825 0 0 1 9.934847,-4.76182 c 7.240224,0.24652 14.505632,0.0778 21.758447,0 2.354647,0 2.392422,0 2.405014,-2.36145 0,-5.19 0,-10.38 0,-15.57 0,-1.64783 -0.566626,-2.1279 -2.102813,-2.11493 -7.756484,0 -15.512967,0 -23.269451,0 -4.381909,0 -7.202449,-2.595 -9.59487,-5.92957 a 5.4773869,5.6441249 0 0 1 -0.730319,-3.56813 c 0,-6.228 0,-12.456 0,-18.684 0.07555,-5.73495 3.550858,-8.2002 7.80685,-9.53662 3.424941,-1.07693 6.938024,-0.76553 10.425923,-0.7785 4.935944,0 9.871888,0 14.807832,0 2.518339,0 2.518339,0 2.593889,-2.49121 0,-4.8786 0,-9.7572 0,-14.6358 0,-1.62188 -0.528851,-2.1798 -2.090221,-2.14088 -4.01675,0.0649 -8.146826,0.013 -12.276902,0.013 z"
     id="path5"
     style="stroke-width:1.27819" />
  <path
     class="c"
     d="m 85.348102,84.484289 c -6.7,0.4 -12.82,-5.25 -13.19,-12.18 a 12.93,12.93 0 0 1 25.79,-1.74 12.89,12.89 0 0 1 -12.6,13.92 z"
     id="path6"
     style="fill:#000080" />
  <g
     id="g6"
     transform="matrix(0.73576403,0,0,0.81659882,130.48696,128.47954)">
    <g
       clip-path="url(#be806ba69f)"
       id="g12"
       transform="matrix(1.3333334,0,0,1.3333334,-93.5625,-84.598961)">
      <path
         fill="#ff1616"
         d="m 96.207031,76.582031 c -0.175781,-2.277343 -1.671875,-4.226562 -3.78125,-5.011719 0.03516,-0.109374 0.06641,-0.222656 0.09766,-0.335937 0.09766,-0.367187 0.167968,-0.746094 0.210937,-1.117187 0.03125,-0.289063 -0.175781,-0.550782 -0.46875,-0.585938 -0.296875,-0.02734 -0.550781,0.179688 -0.582031,0.46875 -0.03516,0.320312 -0.09766,0.644531 -0.183594,0.960938 -0.06641,0.253906 -0.152344,0.503906 -0.25,0.75 -0.05469,0.140624 -0.05078,0.300781 0.01953,0.433593 0.06641,0.136719 0.191407,0.238281 0.335938,0.273438 1.964843,0.519531 3.390625,2.222656 3.546875,4.242187 0.117187,1.535156 -0.519532,3.042969 -1.707032,4.035156 -0.160156,0.132813 -0.226562,0.34375 -0.171874,0.542969 0.08203,0.296875 0.132812,0.589844 0.152343,0.875 0.132813,1.707031 -0.667969,3.363281 -2.089843,4.324219 -0.207032,0.136719 -0.289063,0.398438 -0.199219,0.628906 0.175781,0.441406 0.28125,0.902344 0.316406,1.375 0.09766,1.269532 -0.304687,2.503906 -1.132813,3.472656 -0.828124,0.96875 -1.984374,1.554688 -3.257812,1.652344 -0.101562,0.0078 -0.203125,0.01172 -0.328125,0.01172 -0.210937,0 -0.402344,0.125 -0.484375,0.316406 -0.628906,1.4375 -1.988281,2.40625 -3.550781,2.527344 -1.121094,0.08594 -2.214844,-0.269531 -3.074219,-1.003906 -0.859375,-0.734375 -1.378906,-1.757813 -1.464844,-2.886719 -0.05078,-0.632812 0.03906,-1.253906 0.269532,-1.847656 C 78.535156,90.414062 78.398438,90.105469 78.125,90 c -0.273438,-0.105469 -0.578125,0.03125 -0.683594,0.304688 -0.285156,0.738281 -0.398437,1.515624 -0.339844,2.308593 0.214844,2.769531 2.539063,4.878907 5.269532,4.878907 0.136718,0 0.273437,-0.0039 0.410156,-0.01563 1.839844,-0.140624 3.453125,-1.222656 4.363281,-2.851562 3.207031,-0.25 5.613281,-3.0625 5.363281,-6.265625 -0.03125,-0.4375 -0.117187,-0.871094 -0.246093,-1.289063 1.527343,-1.199218 2.371093,-3.09375 2.21875,-5.039062 -0.01563,-0.242188 -0.05469,-0.492188 -0.105469,-0.746094 1.285156,-1.207031 1.96875,-2.941406 1.832031,-4.703125"
         fill-opacity="1"
         fill-rule="nonzero"
         id="path12" />
    </g>
    <path
       fill="#ff1616"
       d="m 28.250006,4.9218768 c 0.104173,0.2916667 0.375,0.4739587 0.666667,0.4739587 0.07812,0 0.156249,-0.0104 0.234374,-0.036453 0.364584,-0.1302134 0.5625,-0.5312507 0.432292,-0.9010414 C 29.338547,3.7552154 29.015631,3.0781314 28.619798,2.4375074 28.411465,2.109382 27.979173,2.0104233 27.645839,2.2135487 27.317714,2.421882 27.213547,2.854174 27.421881,3.1875074 c 0.338542,0.5468747 0.619792,1.130208 0.828125,1.7343747"
       fill-opacity="1"
       fill-rule="nonzero"
       id="path13"
       style="stroke-width:1.33333" />
    <g
       clip-path="url(#216fcf4ff0)"
       id="g14"
       transform="matrix(1.3333334,0,0,1.3333334,-93.5625,-84.598961)">
      <path
         fill="#ff1616"
         d="m 77.527344,65.136719 c 0.07422,0.226562 0.28125,0.367187 0.503906,0.367187 0.05469,0 0.109375,-0.0078 0.164062,-0.02734 0.277344,-0.08984 0.429688,-0.386718 0.339844,-0.664062 -0.09766,-0.3125 -0.164062,-0.632812 -0.1875,-0.960938 -0.08594,-1.105468 0.265625,-2.183593 0.988282,-3.027343 0.722656,-0.84375 1.730468,-1.355469 2.835937,-1.441407 2.039063,-0.15625 3.917969,1.226563 4.371094,3.214844 0.04687,0.191406 0.1875,0.339844 0.375,0.394532 0.320312,0.08594 0.632812,0.199218 0.933593,0.332031 0.0039,0.0039 0.0039,0.0039 0.0039,0.0039 0.296875,0.132813 0.585937,0.289063 0.863281,0.46875 0.08984,0.05469 0.1875,0.08203 0.285156,0.08203 0.175782,0 0.34375,-0.08594 0.445313,-0.242187 0.160156,-0.246094 0.08594,-0.574219 -0.160157,-0.734375 -0.316406,-0.203125 -0.648437,-0.382813 -0.988281,-0.535156 -0.0039,0 -0.0078,-0.0039 -0.0078,-0.0039 -0.261719,-0.117187 -0.527344,-0.21875 -0.796875,-0.304687 -0.6875,-2.335938 -2.957032,-3.921875 -5.402344,-3.730469 -1.390625,0.105469 -2.65625,0.75 -3.5625,1.808594 -0.90625,1.058593 -1.347656,2.40625 -1.238281,3.796875 0.03125,0.410156 0.109375,0.8125 0.234375,1.203125"
         fill-opacity="1"
         fill-rule="nonzero"
         id="path14" />
    </g>
    <path
       fill="#ff1616"
       d="m 25.984381,19.270836 c 0,0.953126 -0.776042,1.729167 -1.734375,1.729167 -0.953125,0 -1.729167,-0.776041 -1.729167,-1.729167 0,-0.953125 0.776042,-1.734376 1.729167,-1.734376 0.958333,0 1.734375,0.781251 1.734375,1.734376 z M 15.17188,24.760419 c 0,0.661459 -0.541667,1.203126 -1.203124,1.203126 H 2.9895875 c -0.6614574,0 -1.2031241,-0.541667 -1.2031241,-1.203126 V 13.781252 c 0,-0.661459 0.5416667,-1.203125 1.2031241,-1.203125 H 13.968756 c 0.661457,0 1.203124,0.541666 1.203124,1.203125 z m 7.3125,3.239584 c 0.781251,0 1.411459,0.635416 1.411459,1.411458 0,0.78125 -0.630208,1.411458 -1.411459,1.411458 -0.776041,0 -1.411458,-0.630208 -1.411458,-1.411458 0,-0.776042 0.635417,-1.411458 1.411458,-1.411458 z m -4.822916,8.765626 c 0,0.614583 -0.5,1.119791 -1.114584,1.119791 -0.614583,0 -1.119791,-0.505208 -1.119791,-1.119791 0,-0.614584 0.505208,-1.119792 1.119791,-1.119792 0.614584,0 1.114584,0.505208 1.114584,1.119792 z m -16.1354179,0 c 0,0.614583 -0.5,1.119791 -1.11458273,1.119791 -0.61458404,0 -1.11979206,-0.505208 -1.11979206,-1.119791 0,-0.614584 0.50520802,-1.119792 1.11979206,-1.119792 0.61458273,0 1.11458273,0.505208 1.11458273,1.119792 z m -7.057291,-5.94271 c -0.7760427,0 -1.4114588,-0.630208 -1.4114588,-1.411458 0,-0.776042 0.6354161,-1.411458 1.4114588,-1.411458 0.7812493,0 1.4114574,0.635416 1.4114574,1.411458 0,0.78125 -0.6302081,1.411458 -1.4114574,1.411458 z m -1.7604175,-9.822916 c -0.9583333,0 -1.7343747,-0.776041 -1.7343747,-1.729167 0,-0.953125 0.7760414,-1.734376 1.7343747,-1.734376 0.9531254,0 1.7291668,0.781251 1.7291668,1.734376 0,0.953126 -0.7760414,1.729167 -1.7291668,1.729167 z m 1.7604175,-10.458334 c -0.7760427,0 -1.4114588,-0.6354173 -1.4114588,-1.4114586 0,-0.7812494 0.6354161,-1.4114588 1.4114588,-1.4114588 0.7812493,0 1.4114574,0.6302094 1.4114574,1.4114588 0,0.7760413 -0.6302081,1.4114586 -1.4114574,1.4114586 z m 4.82291621,-8.7656257 c 0,-0.614584 0.50520802,-1.11458404 1.11979206,-1.11458404 0.61458273,0 1.11458273,0.50000004 1.11458273,1.11458404 0,0.614584 -0.5,1.1197921 -1.11458273,1.1197921 -0.61458404,0 -1.11979206,-0.5052081 -1.11979206,-1.1197921 z m 16.13541769,0 c 0,-0.614584 0.505208,-1.11458404 1.119791,-1.11458404 0.614584,0 1.114584,0.50000004 1.114584,1.11458404 0,0.614584 -0.5,1.1197921 -1.114584,1.1197921 -0.614583,0 -1.119791,-0.5052081 -1.119791,-1.1197921 z m 7.057291,5.9427083 c 0.781251,0 1.411459,0.6302094 1.411459,1.4114588 0,0.7760413 -0.630208,1.4114586 -1.411459,1.4114586 -0.776041,0 -1.411458,-0.6354173 -1.411458,-1.4114586 0,-0.7812494 0.635417,-1.4114588 1.411458,-1.4114588 z M 21.187506,18.562503 h -4.604167 v -2.552084 h 1.786459 c 0.390625,0 0.708333,-0.317708 0.708333,-0.703124 V 9.8333357 h 0.671875 c 0.317708,1.2187493 1.421874,2.1197903 2.734374,2.1197903 1.557293,0 2.822918,-1.265624 2.822918,-2.8229156 0,-1.5572921 -1.265625,-2.8229162 -2.822918,-2.8229162 -1.3125,0 -2.416666,0.9010414 -2.734374,2.1145828 h -1.380208 c -0.390626,0 -0.708334,0.317708 -0.708334,0.7083334 v 5.4687506 h -1.078125 v -0.817709 c 0,-1.4375 -1.177084,-2.614583 -2.614583,-2.614583 H 13.723964 V 6.1875022 h 2.822916 c 0.390626,0 0.708334,-0.3177093 0.708334,-0.7031254 V 4.2031261 c 1.046876,-0.3072907 1.822917,-1.2760414 1.822917,-2.4270828 0,-1.39583338 -1.140625,-2.52604144 -2.531251,-2.52604144 -1.395833,0 -2.531249,1.13020806 -2.531249,2.52604144 0,1.1510414 0.770833,2.1197921 1.822916,2.4270828 v 0.5729174 h -2.822916 c -0.390626,0 -0.703126,0.317708 -0.703126,0.7083333 V 11.166669 H 4.6458382 V 5.4843768 c 0,-0.3906253 -0.317708,-0.7083333 -0.7031253,-0.7083333 H 1.1145874 V 4.2031261 C 2.1666715,3.8958354 2.9427128,2.9270847 2.9427128,1.7760433 c 0,-1.39583338 -1.135416,-2.52604144 -2.53124943,-2.52604144 -1.39583341,0 -2.53125077,1.13020806 -2.53125077,2.52604144 0,1.1510414 0.7708333,2.1197921 1.8229174,2.4270828 v 1.2812507 c 0,0.3854161 0.31770801,0.7031254 0.70833337,0.7031254 H 3.2343795 v 4.9791668 h -0.244792 c -1.4427081,0 -2.6145828,1.177083 -2.6145828,2.614583 v 0.817709 H -0.70832869 V 9.1302104 c 0,-0.3906254 -0.31250001,-0.7083334 -0.70312541,-0.7083334 h -1.385416 c -0.3125,-1.2135414 -1.4218761,-2.1145828 -2.7343748,-2.1145828 -1.5572921,0 -2.8229175,1.2656241 -2.8229175,2.8229162 0,1.5572916 1.2656254,2.8229156 2.8229175,2.8229156 1.3124987,0 2.4218748,-0.901041 2.7343748,-2.1197903 h 0.6770827 v 5.4739593 c 0,0.385416 0.317708,0.703124 0.7083333,0.703124 h 1.7864588 v 2.552084 h -4.6093749 c -0.3177093,-1.390626 -1.5677094,-2.432292 -3.0572922,-2.432292 -1.7343747,0 -3.1458336,1.406249 -3.1458336,3.140625 0,1.734375 1.4114589,3.140624 3.1458336,3.140624 1.4895828,0 2.7395829,-1.041666 3.0572922,-2.43229 h 4.6093749 v 2.552082 h -1.7864588 c -0.3906253,0 -0.7083333,0.31771 -0.7083333,0.708334 v 5.468751 h -0.6770827 c -0.3125,-1.218751 -1.4218761,-2.119792 -2.7343748,-2.119792 -1.5572921,0 -2.8229175,1.265625 -2.8229175,2.822916 0,1.557292 1.2656254,2.828125 2.8229175,2.828125 1.3124987,0 2.4218748,-0.906249 2.7343748,-2.119792 h 1.385416 c 0.3906254,0 0.70312541,-0.317708 0.70312541,-0.708333 v -5.46875 H 0.3750047 v 0.817708 c 0,1.4375 1.1718747,2.614584 2.6145828,2.614584 h 0.244792 V 32.35417 H 0.41146337 c -0.39062536,0 -0.70833337,0.317708 -0.70833337,0.708334 v 1.276041 c -1.0520841,0.307292 -1.8229174,1.276041 -1.8229174,2.427084 0,1.395832 1.13541736,2.526042 2.53125077,2.526042 1.39583343,0 2.53124943,-1.13021 2.53124943,-2.526042 0,-1.151043 -0.7760413,-2.119792 -1.8281254,-2.427084 v -0.572916 h 2.8281255 c 0.3854173,0 0.7031253,-0.317709 0.7031253,-0.703125 v -5.687501 h 7.6666668 v 5.687501 c 0,0.385416 0.3125,0.703125 0.703126,0.703125 h 2.822916 v 0.572916 c -1.052083,0.307292 -1.822916,1.276041 -1.822916,2.427084 0,1.395832 1.135416,2.53125 2.531249,2.53125 1.390626,0 2.531251,-1.135418 2.531251,-2.53125 0,-1.151043 -0.776041,-2.119792 -1.822917,-2.427084 v -1.276041 c 0,-0.390626 -0.317708,-0.708334 -0.708334,-0.708334 h -2.822916 v -4.979167 h 0.244792 c 1.437499,0 2.614583,-1.177084 2.614583,-2.614584 v -0.817708 h 1.078125 v 5.46875 c 0,0.390625 0.317708,0.708333 0.708334,0.708333 h 1.380208 c 0.317708,1.213543 1.421874,2.119792 2.734374,2.119792 1.557293,0 2.822918,-1.270833 2.822918,-2.828125 0,-1.557291 -1.265625,-2.822916 -2.822918,-2.822916 -1.3125,0 -2.416666,0.901041 -2.734374,2.119792 h -0.671875 v -5.468751 c 0,-0.390624 -0.317708,-0.708334 -0.708333,-0.708334 H 16.583339 V 19.97917 h 4.604167 c 0.322917,1.390624 1.572917,2.43229 3.0625,2.43229 1.734375,0 3.145833,-1.406249 3.145833,-3.140624 0,-1.734376 -1.411458,-3.140625 -3.145833,-3.140625 -1.489583,0 -2.739583,1.041666 -3.0625,2.432292"
       fill-opacity="1"
       fill-rule="nonzero"
       id="path15"
       style="stroke-width:1.33333" />
    <g
       clip-path="url(#f1f1d4c6a1)"
       id="g16"
       transform="matrix(1.3333334,0,0,1.3333334,-93.5625,-84.598961)">
      <path
         fill="#ff1616"
         d="m 74.933594,90 c -0.269532,0.105469 -0.40625,0.414062 -0.300782,0.683594 0.226563,0.589844 0.320313,1.214844 0.269532,1.847656 -0.179688,2.328125 -2.214844,4.074219 -4.542969,3.890625 -1.558594,-0.121094 -2.917969,-1.089844 -3.546875,-2.527344 -0.08594,-0.191406 -0.273438,-0.316406 -0.488281,-0.316406 -0.105469,0.0039 -0.214844,0 -0.328125,-0.01172 -1.269532,-0.09766 -2.425782,-0.683594 -3.253906,-1.652344 -0.832032,-0.96875 -1.234376,-2.203124 -1.132813,-3.472656 0.03516,-0.472656 0.140625,-0.933594 0.3125,-1.375 0.08984,-0.230468 0.0078,-0.492187 -0.195313,-0.628906 -1.421874,-0.960938 -2.222656,-2.617188 -2.089843,-4.324219 0.01953,-0.285156 0.07031,-0.578125 0.152343,-0.875 0.05469,-0.199219 -0.01562,-0.410156 -0.171874,-0.542969 -0.121094,-0.101562 -0.234376,-0.207031 -0.34375,-0.316406 0,0 -0.0039,0 -0.0039,-0.0039 -0.222656,-0.226562 -0.421875,-0.472656 -0.59375,-0.738281 -0.160156,-0.246094 -0.488281,-0.3125 -0.734375,-0.152344 -0.246094,0.160156 -0.3125,0.488281 -0.152344,0.734375 0.210938,0.320312 0.457032,0.625 0.726563,0.902344 h 0.0039 c 0.05469,0.05469 0.109375,0.113281 0.167969,0.164062 -0.05078,0.253906 -0.08984,0.503906 -0.109375,0.746094 -0.148437,1.945312 0.695313,3.839844 2.222656,5.039062 -0.132812,0.417969 -0.214843,0.851563 -0.246093,1.289063 -0.121094,1.550781 0.371093,3.058594 1.382812,4.242187 1.011719,1.183594 2.425781,1.902344 4.050781,2.027344 0.839844,1.625 2.453125,2.707032 4.289063,2.847656 0.140625,0.01172 0.277344,0.01563 0.414062,0.01563 2.730469,0 5.054688,-2.109376 5.265625,-4.878907 0.0625,-0.792969 -0.05078,-1.570312 -0.335937,-2.308593 C 75.515625,90.03125 75.207031,89.894531 74.933594,90"
         fill-opacity="1"
         fill-rule="nonzero"
         id="path16" />
    </g>
    <g
       clip-path="url(#6ff73a9083)"
       id="g17"
       transform="matrix(1.3333334,0,0,1.3333334,-93.5625,-84.598961)">
      <path
         fill="#ff1616"
         d="m 59.300781,73.46875 c 0.117188,0 0.238281,-0.03906 0.335938,-0.121094 0.246093,-0.199218 0.511719,-0.375 0.792969,-0.527344 0.324218,-0.171874 0.667968,-0.308593 1.023437,-0.402343 0.148437,-0.03516 0.269531,-0.136719 0.339844,-0.269531 0.06641,-0.136719 0.07422,-0.296876 0.01953,-0.4375 -0.378906,-0.941407 -0.53125,-1.925782 -0.453125,-2.925782 0.210937,-2.734375 2.132813,-5.0625 4.78125,-5.792968 0.1875,-0.05469 0.332031,-0.203126 0.375,-0.394532 0.457031,-1.992187 2.34375,-3.375 4.371094,-3.214844 2.289062,0.175782 4.003906,2.183594 3.828125,4.46875 -0.02734,0.328126 -0.08984,0.652344 -0.191406,0.957032 -0.08984,0.28125 0.0625,0.578125 0.339843,0.667968 0.277344,0.08984 0.578125,-0.0625 0.667969,-0.339843 0.125,-0.386719 0.207031,-0.789063 0.238281,-1.203125 0.222657,-2.867188 -1.929687,-5.382813 -4.800781,-5.605469 -2.441406,-0.191406 -4.71875,1.398437 -5.40625,3.730469 -2.921875,0.9375 -5.019531,3.570312 -5.257812,6.644531 -0.07813,0.972656 0.03516,1.9375 0.332031,2.867187 -0.242188,0.08984 -0.476563,0.195313 -0.703125,0.316407 -0.34375,0.183593 -0.667969,0.398437 -0.96875,0.644531 -0.226563,0.1875 -0.257813,0.519531 -0.07422,0.746094 0.105469,0.125 0.257813,0.191406 0.410156,0.191406"
         fill-opacity="1"
         fill-rule="nonzero"
         id="path17" />
    </g>
    <g
       clip-path="url(#a6391c9fab)"
       id="g18"
       transform="matrix(1.3333334,0,0,1.3333334,-93.5625,-84.598961)">
      <path
         fill="#ff1616"
         d="m 57.898438,77 c 0,-0.113281 0.0039,-0.222656 0.01172,-0.339844 0.02734,-0.351562 0.09375,-0.699218 0.195313,-1.03125 0.08594,-0.28125 -0.07031,-0.574218 -0.351563,-0.664062 -0.277344,-0.08594 -0.574218,0.07422 -0.660156,0.351562 -0.125,0.40625 -0.207031,0.832032 -0.238281,1.261719 -0.01172,0.140625 -0.01563,0.277344 -0.01953,0.417969 0,0.289062 0.238281,0.527344 0.53125,0.53125 0.292968,0 0.527343,-0.238282 0.53125,-0.527344"
         fill-opacity="1"
         fill-rule="nonzero"
         id="path18" />
    </g>
    <path
       fill="#ff1616"
       d="m 11.85938,14.890628 -7.7604165,7.765624 c -0.2760426,0.270834 -0.2760426,0.718751 0,0.994792 0.1354161,0.140626 0.3177081,0.208334 0.5000001,0.208334 0.1770827,0 0.3593747,-0.06771 0.494792,-0.208334 L 12.85938,15.890628 c 0.276043,-0.276043 0.276043,-0.723959 0,-1 -0.276041,-0.276043 -0.723957,-0.276043 -1,0"
       fill-opacity="1"
       fill-rule="nonzero"
       id="path19"
       style="stroke-width:1.33333" />
    <g
       clip-path="url(#4a0bec40c7)"
       id="g20"
       transform="matrix(1.3333334,0,0,1.3333334,-93.5625,-84.598961)">
      <path
         fill="#004aad"
         d="M 94.035156,56.398438 C 94.488281,57.050781 94.886719,57.75 95.25,58.484375 Z m 12.296874,4.277343 -1.17578,-1.507812 c -0.043,0.02344 -0.0859,0.04297 -0.13281,0.0625 -0.0977,3.082031 -1.04297,9.054687 -3.73047,11.070312 C 99.707031,68.191406 99.804688,60.65625 99.09375,58.3125 99.04297,58.26563 98.992188,58.22266 98.941406,58.179688 l -0.03516,-0.01953 c -0.5,-0.273437 -1.011719,-0.523437 -1.535156,-0.753906 -1.160156,-0.503906 -2.351563,-0.953125 -3.527344,-1.433594 -0.222656,-0.08984 -0.441406,-0.191406 -0.660156,-0.289062 0.828125,1.210937 1.769531,2.863281 3.128906,6.203125 1.625,7.71875 2.59375,10.714843 2.816406,16.179687 0.136719,3.449219 0.167969,4.964844 0.214844,8.414063 0.03906,2.875 -0.324219,4.742187 -0.8125,10.601562 h 4.710944 c 0.97656,-10.742187 0.48828,-12.21875 0.48828,-19.527343 0,-2.523438 3.39844,-11.429688 2.60156,-16.878907"
         fill-opacity="1"
         fill-rule="nonzero"
         id="path20" />
    </g>
    <g
       clip-path="url(#3bb8ad6a92)"
       id="g21"
       transform="matrix(1.3333334,0,0,1.3333334,-93.5625,-84.598961)">
      <path
         fill="#969092"
         d="M 94.035156,56.398438 93.6875,56.640625 c 0.4375,0.632813 0.828125,1.3125 1.183594,2.027344 L 95.25,58.484375 95.613281,58.269531 94.402344,56.1875 l -0.367188,0.210938 -0.347656,0.242187 0.347656,-0.242187 -0.363281,0.214843 1.210937,2.082031 c 0.117188,0.195313 0.363282,0.265626 0.566407,0.160157 0.199219,-0.109375 0.28125,-0.355469 0.179687,-0.558594 -0.371094,-0.75 -0.78125,-1.464844 -1.246094,-2.136719 C 94.253906,55.972656 94,55.921875 93.808594,56.042969 c -0.191406,0.121093 -0.25,0.375 -0.136719,0.570312 z m 12.296874,4.277343 0.33203,-0.257812 -1.17187,-1.507813 c -0.1211,-0.15625 -0.33594,-0.207031 -0.51563,-0.121094 -0.0391,0.01953 -0.082,0.03516 -0.11718,0.05078 -0.15235,0.06641 -0.25391,0.210937 -0.25782,0.378906 -0.0469,1.503906 -0.30859,3.746094 -0.8789,5.832031 -0.28516,1.046875 -0.65235,2.050781 -1.10157,2.90625 -0.44921,0.855469 -0.98046,1.554688 -1.58203,2.007813 l 0.25391,0.335937 0.33594,-0.253906 c -0.16016,-0.214844 -0.32032,-0.527344 -0.46094,-0.914063 -0.24609,-0.679687 -0.44141,-1.578124 -0.59766,-2.566406 -0.23437,-1.480468 -0.38281,-3.171875 -0.52734,-4.6875 -0.07422,-0.757812 -0.148439,-1.472656 -0.234376,-2.097656 -0.08594,-0.628906 -0.183594,-1.167969 -0.3125,-1.59375 -0.01953,-0.07422 -0.0625,-0.140625 -0.121094,-0.191406 -0.05078,-0.04687 -0.109375,-0.09375 -0.167969,-0.144532 -0.01953,-0.01562 -0.03906,-0.02734 -0.05859,-0.03906 l -0.03516,-0.02344 h -0.0078 c -0.507813,-0.277343 -1.03125,-0.535156 -1.566407,-0.769531 -1.175781,-0.511719 -2.371093,-0.957031 -3.535156,-1.4375 -0.214844,-0.08984 -0.429687,-0.183593 -0.640625,-0.285156 -0.175781,-0.07813 -0.378906,-0.03125 -0.5,0.113281 -0.125,0.144532 -0.132812,0.355469 -0.02734,0.511719 0.40625,0.59375 0.835937,1.289063 1.335937,2.257813 0.503906,0.96875 1.074219,2.207031 1.75,3.867187 l 0.390625,-0.160156 -0.414062,0.08594 c 0.8125,3.867188 1.460937,6.546875 1.933593,8.929688 0.46875,2.382812 0.761719,4.46875 0.871094,7.179687 0.140625,3.449219 0.171875,4.957031 0.21875,8.40625 0,0.140625 0.0039,0.277344 0.0039,0.414063 0,1.308594 -0.08984,2.441406 -0.234375,3.957031 -0.144531,1.511719 -0.347656,3.398437 -0.582031,6.1875 -0.0078,0.117187 0.03125,0.234375 0.109375,0.320313 0.08203,0.08594 0.195312,0.136718 0.3125,0.136718 h 4.710941 c 0.21875,0 0.40234,-0.167968 0.42187,-0.382812 0.48828,-5.378906 0.60938,-8.449219 0.60938,-11.089844 0,-2.640625 -0.1211,-4.832031 -0.1211,-8.476562 0,-0.242188 0.0391,-0.585938 0.10938,-1 0.12891,-0.726563 0.35156,-1.675782 0.62109,-2.753907 0.40235,-1.617187 0.89844,-3.53125 1.29688,-5.496093 0.39453,-1.964844 0.6914,-3.976563 0.69531,-5.804688 0,-0.65625 -0.0391,-1.285156 -0.12891,-1.882812 -0.008,-0.07422 -0.0391,-0.140626 -0.082,-0.199219 l -0.33203,0.257812 -0.42187,0.0625 c 0.082,0.546875 0.11718,1.140625 0.11718,1.761719 0.004,2.644531 -0.66796,5.824219 -1.34765,8.617188 -0.33985,1.394531 -0.67969,2.699218 -0.9375,3.800781 -0.125,0.550781 -0.23438,1.050781 -0.3125,1.492187 -0.0742,0.441406 -0.1211,0.820313 -0.1211,1.144532 0,3.664062 0.1211,5.867187 0.1211,8.476562 0,2.613281 -0.1211,5.648438 -0.60938,11.011719 l 0.42188,0.03906 v -0.421875 h -4.710941 v 0.421875 l 0.421875,0.03516 c 0.230469,-2.777344 0.433594,-4.65625 0.578125,-6.179688 0.148438,-1.519531 0.238281,-2.691406 0.238281,-4.035156 0,-0.140625 0,-0.28125 -0.0039,-0.425782 -0.04687,-3.449218 -0.07813,-4.972656 -0.214844,-8.429687 -0.113281,-2.753906 -0.414062,-4.898437 -0.890625,-7.308594 -0.476562,-2.410156 -1.125,-5.085937 -1.9375,-8.9375 -0.0039,-0.02734 -0.01172,-0.05078 -0.01953,-0.07422 -0.683594,-1.675781 -1.261719,-2.9375 -1.777344,-3.933593 C 94.40625,56.796875 93.957031,56.0625 93.53125,55.445312 l -0.347656,0.238282 -0.175782,0.382812 c 0.21875,0.101563 0.445313,0.203125 0.675782,0.296875 1.179687,0.484375 2.371094,0.929688 3.515625,1.429688 0.515625,0.226562 1.015625,0.472656 1.503906,0.738281 l 0.203125,-0.371094 -0.210938,0.367188 0.03906,0.01953 0.207031,-0.367187 -0.269531,0.328124 c 0.04687,0.03516 0.09375,0.07422 0.140625,0.121094 L 99.09375,58.3125 98.6875,58.433594 c 0.08203,0.261718 0.15625,0.621094 0.222656,1.042968 0.117188,0.746094 0.214844,1.683594 0.3125,2.703126 0.144532,1.527343 0.300782,3.230468 0.546875,4.738281 0.125,0.753906 0.277349,1.460937 0.464849,2.078125 0.1875,0.617187 0.41406,1.148437 0.72265,1.558594 0.13672,0.1875 0.40235,0.226562 0.58985,0.08594 0.74218,-0.558594 1.33593,-1.363281 1.82421,-2.289063 0.73047,-1.394531 1.22266,-3.078124 1.55079,-4.714843 0.32812,-1.632813 0.48437,-3.214844 0.52343,-4.394531 l -0.42187,-0.01172 0.16406,0.386719 c 0.0547,-0.01953 0.10547,-0.04297 0.15234,-0.06641 l -0.18359,-0.382812 -0.33203,0.261719 1.17187,1.507812 0.33594,-0.261719 -0.42187,0.0625 0.42187,-0.0625"
         fill-opacity="1"
         fill-rule="nonzero"
         id="path21" />
    </g>
    <g
       clip-path="url(#fd5a1ab338)"
       id="g22"
       transform="matrix(1.3333334,0,0,1.3333334,-93.5625,-84.598961)">
      <path
         fill="#004aad"
         d="M 58.894531,58.484375 C 59.257812,57.75 59.65625,57.050781 60.109375,56.398438 Z m -8.480469,19.070313 c 0,7.308593 -0.488281,8.785156 0.488282,19.527343 h 4.710937 c -0.488281,-5.859375 -0.851562,-7.726562 -0.8125,-10.601562 0.04687,-3.449219 0.07813,-4.964844 0.214844,-8.414063 0.222656,-5.464844 1.191406,-8.460937 2.816406,-16.179687 1.359375,-3.339844 2.300781,-4.992188 3.128907,-6.203125 -0.21875,0.09766 -0.4375,0.199218 -0.660157,0.289062 -1.171875,0.480469 -2.367187,0.929688 -3.527343,1.433594 -0.523438,0.230469 -1.035157,0.480469 -1.535157,0.753906 l -0.03516,0.01953 c -0.05078,0.04297 -0.101563,0.08594 -0.152344,0.132812 -0.710937,2.34375 -0.613281,9.878906 -2.199219,11.988281 -2.6875,-2.015625 -3.632812,-7.988281 -3.730468,-11.070312 -0.04687,-0.01953 -0.08984,-0.03906 -0.136719,-0.0625 l -1.167969,1.507812 c -0.800777,5.449221 2.59766,14.355471 2.59766,16.878909"
         fill-opacity="1"
         fill-rule="nonzero"
         id="path22" />
    </g>
    <g
       clip-path="url(#d5f40574dd)"
       id="g23"
       transform="matrix(1.3333334,0,0,1.3333334,-93.5625,-84.598961)">
      <path
         fill="#969092"
         d="m 58.894531,58.484375 0.378907,0.183594 c 0.355468,-0.714844 0.746093,-1.394531 1.183593,-2.027344 l -0.347656,-0.242187 -0.367187,-0.210938 -1.210938,2.082031 0.363281,0.214844 0.378907,0.183594 -0.378907,-0.183594 0.367188,0.210937 1.210937,-2.082031 c 0.113282,-0.195312 0.05469,-0.449219 -0.136718,-0.570312 -0.191407,-0.121094 -0.445313,-0.07031 -0.574219,0.117187 -0.464844,0.671875 -0.875,1.386719 -1.246094,2.136719 -0.101563,0.203125 -0.01953,0.449219 0.179687,0.558594 0.203126,0.105469 0.449219,0.03516 0.566407,-0.160157 z m -8.480469,19.070313 h -0.421874 c 0,3.644531 -0.121094,5.835937 -0.121094,8.476562 0,2.640625 0.121094,5.710938 0.609375,11.089844 0.01953,0.214844 0.203125,0.382812 0.421875,0.382812 h 4.710937 c 0.117188,0 0.230469,-0.05078 0.3125,-0.136718 0.07813,-0.08594 0.117188,-0.203126 0.109375,-0.320313 -0.234375,-2.789063 -0.4375,-4.675781 -0.582031,-6.1875 -0.144531,-1.515625 -0.234375,-2.652344 -0.234375,-3.957031 0,-0.136719 0.0039,-0.273438 0.0039,-0.414063 0.04687,-3.449219 0.07813,-4.957031 0.21875,-8.40625 0.105469,-2.710937 0.402344,-4.796875 0.871094,-7.179687 0.472656,-2.382813 1.121094,-5.0625 1.933594,-8.929688 l -0.414063,-0.08594 0.390625,0.160156 c 0.675782,-1.660156 1.246094,-2.898437 1.746094,-3.867187 0.503906,-0.96875 0.933594,-1.667969 1.339844,-2.257813 0.109375,-0.15625 0.09766,-0.367187 -0.02734,-0.511719 -0.121094,-0.144531 -0.328125,-0.191406 -0.5,-0.109375 -0.210938,0.09766 -0.425781,0.191407 -0.640625,0.28125 -1.164063,0.480469 -2.363281,0.925781 -3.535156,1.4375 -0.535157,0.234375 -1.058594,0.492188 -1.566407,0.769531 h -0.0078 l -0.03516,0.02344 c -0.01953,0.01172 -0.03906,0.02344 -0.05859,0.03906 -0.05859,0.05078 -0.117188,0.09766 -0.167969,0.144532 -0.05859,0.05078 -0.101562,0.117187 -0.121093,0.191406 -0.09766,0.324219 -0.179688,0.714844 -0.25,1.160156 -0.121094,0.777344 -0.21875,1.730469 -0.316407,2.75 -0.148437,1.53125 -0.300781,3.21875 -0.542969,4.679688 -0.121093,0.730468 -0.265624,1.40625 -0.4375,1.972656 -0.171874,0.5625 -0.375,1.015625 -0.585937,1.296875 l 0.335937,0.253906 0.253907,-0.335937 c -0.601563,-0.453125 -1.132813,-1.152344 -1.582031,-2.007813 -0.675782,-1.28125 -1.15625,-2.902343 -1.472657,-4.484375 -0.316406,-1.582031 -0.472656,-3.125 -0.507812,-4.253906 -0.0039,-0.167969 -0.105469,-0.3125 -0.257813,-0.378906 -0.03516,-0.01563 -0.07813,-0.03125 -0.121094,-0.05469 -0.179687,-0.08203 -0.390624,-0.03125 -0.511718,0.125 l -1.171875,1.507813 c -0.04297,0.05859 -0.07422,0.125 -0.08594,0.199219 -0.08594,0.597656 -0.125,1.226562 -0.125,1.882812 0.0039,2.78125 0.691407,6 1.375,8.816406 0.339844,1.40625 0.679688,2.707032 0.933594,3.792969 0.125,0.542969 0.230469,1.027344 0.300781,1.445313 0.07422,0.414062 0.113282,0.757812 0.113282,1 h 0.84375 c 0,-0.324219 -0.04688,-0.703126 -0.121094,-1.144532 -0.136719,-0.769531 -0.367188,-1.726562 -0.632813,-2.8125 -0.40625,-1.621094 -0.898437,-3.523437 -1.289062,-5.460937 C 48.402344,66.203125 48.113281,64.234375 48.113281,62.5 c 0,-0.621094 0.03906,-1.214844 0.121094,-1.761719 l -0.417969,-0.0625 0.332032,0.261719 1.171874,-1.507812 -0.335937,-0.261719 -0.175781,0.382812 c 0.04297,0.02344 0.09375,0.04297 0.148437,0.06641 l 0.164063,-0.386719 -0.421875,0.01172 c 0.05078,1.574218 0.3125,3.859374 0.910156,6.035156 0.296875,1.085937 0.679687,2.144531 1.164063,3.074218 0.488281,0.925782 1.082031,1.730469 1.824218,2.289063 0.1875,0.140625 0.449219,0.101563 0.589844,-0.08594 0.234375,-0.3125 0.421875,-0.695313 0.582031,-1.132813 0.277344,-0.765625 0.476563,-1.703125 0.636719,-2.722656 0.242188,-1.523438 0.390625,-3.226563 0.539062,-4.738281 0.07031,-0.753907 0.144532,-1.460938 0.226563,-2.066407 0.08203,-0.605469 0.179687,-1.117187 0.285156,-1.460937 l -0.40625,-0.121094 0.28125,0.316406 c 0.04687,-0.04687 0.09375,-0.08594 0.140625,-0.121094 l -0.269531,-0.328124 0.207031,0.367187 0.03516,-0.01953 -0.207031,-0.367188 0.203125,0.371094 c 0.488282,-0.265625 0.988282,-0.511719 1.503906,-0.738281 1.144532,-0.5 2.332032,-0.945313 3.515626,-1.429688 0.230468,-0.09375 0.457031,-0.195312 0.675781,-0.296875 l -0.175781,-0.382812 -0.351563,-0.238282 c -0.421875,0.617188 -0.875,1.351563 -1.390625,2.347657 -0.515625,0.996093 -1.09375,2.257812 -1.777344,3.933593 -0.0078,0.02344 -0.01563,0.04688 -0.01953,0.07422 -0.8125,3.851563 -1.460937,6.527344 -1.9375,8.9375 -0.476563,2.410157 -0.777344,4.554688 -0.890625,7.308594 -0.136719,3.457031 -0.167969,4.980469 -0.214844,8.429687 -0.0039,0.144532 -0.0039,0.285157 -0.0039,0.425782 0,1.34375 0.08984,2.515625 0.238281,4.035156 0.144531,1.523438 0.347657,3.402344 0.578125,6.179688 l 0.421875,-0.03516 v -0.421875 h -4.710937 v 0.421875 l 0.417968,-0.03906 c -0.484374,-5.363281 -0.605468,-8.398438 -0.605468,-11.011719 0,-2.609375 0.121094,-4.8125 0.121094,-8.476562 h -0.421876"
         fill-opacity="1"
         fill-rule="nonzero"
         id="path23" />
    </g>
    <path
       fill="#004aad"
       d="m -13.416663,-9.4010399 -1.619792,2.7812495 c 0.484375,-0.9791668 1.015626,-1.9114588 1.619792,-2.7812495"
       fill-opacity="1"
       fill-rule="nonzero"
       id="path24"
       style="stroke-width:1.33333" />
    <path
       fill="#969092"
       d="m -13.416663,-9.4010399 -0.489582,-0.2812507 -1.614584,2.7760415 0.484374,0.2864587 0.50521,0.244792 c 0.473957,-0.9531254 0.99479,-1.8593748 1.578124,-2.7031255 l -0.463542,-0.322916 -0.489582,-0.2812507 0.489582,0.2812507 -0.463541,-0.3177094 c -0.619792,0.8958334 -1.166667,1.8489588 -1.661459,2.8489589 -0.135417,0.2708333 -0.02604,0.5989586 0.239583,0.744792 0.270835,0.1406253 0.598959,0.04688 0.755209,-0.2135427 l 1.614583,-2.7760415 c 0.151043,-0.260416 0.07292,-0.5989587 -0.182291,-0.760416 -0.255209,-0.1614584 -0.59375,-0.093747 -0.765625,0.1562493 l 0.463541,0.3177094"
       fill-opacity="1"
       fill-rule="nonzero"
       id="path25"
       style="stroke-width:1.33333" />
    <g
       clip-path="url(#ca6c7c9a05)"
       id="g26"
       transform="matrix(1.3333334,0,0,1.3333334,-93.5625,-84.598961)">
      <path
         fill="#004aad"
         d="m 115.45703,62.128906 c -0.97656,-2.265625 -2.67969,-3.683594 -4.71094,-4.347656 -12.097652,-3.933594 -21.488278,-8.480469 -30.921871,-15.277344 0.59375,-0.476562 1.121093,-1.027344 1.484375,-1.738281 0.8125,-1.324219 0.164062,-4.539063 -0.972656,-3.78125 -1.28125,1.066406 -2.546876,2.082031 -3.804688,3.058594 -1.257812,-0.976563 -2.523438,-1.992188 -3.804688,-3.058594 -1.136718,-0.757813 -1.785156,2.457031 -0.972656,3.78125 0.363282,0.710937 0.890625,1.261719 1.484375,1.738281 -9.433593,6.796875 -18.824219,11.34375 -30.921875,15.277344 -2.03125,0.664062 -3.734375,2.082031 -4.710937,4.347656 -0.648438,2.082032 0.648437,5.105469 2.113281,4.730469 13.160156,-3.972656 24.695312,-13.238281 36.070312,-21.410156 0.277344,-0.214844 0.527344,-0.40625 0.742188,-0.574219 0.214844,0.167969 0.464844,0.359375 0.742188,0.574219 11.375,8.171875 22.910152,17.4375 36.070312,21.410156 1.46094,0.375 2.76172,-2.648437 2.11328,-4.730469"
         fill-opacity="1"
         fill-rule="nonzero"
         id="path26" />
    </g>
    <g
       clip-path="url(#3ab8adb343)"
       id="g27"
       transform="matrix(1.3333334,0,0,1.3333334,-93.5625,-84.598961)">
      <path
         fill="#969092"
         d="m 115.45703,62.128906 0.38672,-0.164062 c -0.50781,-1.1875 -1.21484,-2.164063 -2.0625,-2.925782 -0.84766,-0.761718 -1.83594,-1.3125 -2.90625,-1.660156 C 98.808594,53.453125 89.46875,48.933594 80.070312,42.164062 l -0.246093,0.339844 0.265625,0.328125 c 0.621094,-0.5 1.195312,-1.09375 1.59375,-1.871093 l -0.375,-0.195313 0.359375,0.222656 C 81.828125,40.730469 81.929688,40.433594 82,40.125 c 0.06641,-0.308594 0.09375,-0.632812 0.09375,-0.957031 0,-0.621094 -0.101562,-1.234375 -0.304688,-1.734375 -0.101562,-0.25 -0.230468,-0.472656 -0.402343,-0.65625 -0.08984,-0.09375 -0.191407,-0.171875 -0.3125,-0.234375 -0.121094,-0.05859 -0.261719,-0.09375 -0.40625,-0.09375 -0.199219,0 -0.398438,0.07031 -0.566407,0.183593 l -0.03906,0.02734 c -1.273438,1.0625 -2.535156,2.074219 -3.789062,3.046875 l 0.257812,0.335938 0.257812,-0.335938 C 75.535158,38.734371 74.27344,37.722652 72.996096,36.660152 l -0.03516,-0.02734 c -0.167969,-0.113281 -0.367188,-0.183593 -0.570313,-0.183593 -0.140625,0 -0.28125,0.03516 -0.402344,0.09375 C 71.777344,36.652344 71.625,36.816406 71.5,37 c -0.183594,0.277344 -0.3125,0.613281 -0.398438,0.984375 -0.08984,0.371094 -0.132812,0.777344 -0.132812,1.179687 0,0.328126 0.02734,0.652344 0.09375,0.960938 0.06641,0.308594 0.171875,0.601562 0.328125,0.863281 L 71.753906,40.765625 71.375,40.960938 c 0.402344,0.777343 0.976562,1.371093 1.597656,1.871093 l 0.265625,-0.328125 -0.246093,-0.339844 C 63.59375,48.933594 54.253906,53.453125 42.1875,57.378906 c -1.070312,0.347656 -2.058594,0.898438 -2.90625,1.660156 -0.847656,0.761719 -1.554688,1.738282 -2.0625,2.925782 l -0.01563,0.03906 c -0.132813,0.425782 -0.191406,0.878906 -0.191406,1.328125 0,0.945313 0.25,1.890625 0.660156,2.632813 0.203125,0.371094 0.453125,0.695312 0.746094,0.941406 0.296875,0.242188 0.65625,0.40625 1.046875,0.40625 0.121094,0 0.238281,-0.01563 0.355468,-0.04687 l 0.01953,-0.0039 c 6.632812,-2 12.839844,-5.332031 18.8125,-9.175781 5.96875,-3.847657 11.703125,-8.210938 17.382812,-12.292969 l 0.0078,-0.0078 c 0.28125,-0.214844 0.53125,-0.40625 0.75,-0.578125 L 76.53125,44.875 76.269531,45.207031 c 0.21875,0.171875 0.46875,0.363281 0.75,0.578125 l 0.0078,0.0078 c 5.679687,4.082031 11.414062,8.445312 17.382812,12.292969 5.968757,3.84375 12.175787,7.175781 18.812507,9.175781 l 0.0156,0.0039 c 0.11719,0.03125 0.23828,0.04687 0.35547,0.04687 0.39453,0 0.75391,-0.164062 1.04688,-0.40625 0.44531,-0.367188 0.78125,-0.910156 1.02734,-1.53125 0.24219,-0.625 0.38281,-1.335938 0.38281,-2.042969 0,-0.449219 -0.0586,-0.902343 -0.1914,-1.328125 l -0.0156,-0.03906 -0.38672,0.164062 -0.40234,0.128906 c 0.10156,0.328126 0.15234,0.695313 0.15234,1.074219 0,0.789063 -0.22265,1.625 -0.55469,2.226563 -0.16406,0.300781 -0.35937,0.539062 -0.54687,0.691406 -0.1875,0.15625 -0.35547,0.21875 -0.51172,0.21875 -0.0469,0 -0.0937,-0.0078 -0.14453,-0.01953 l -0.10547,0.410156 0.12109,-0.40625 C 106.94141,64.484375 100.80078,61.195312 94.867188,57.375 88.9375,53.550781 83.214844,49.195312 77.519531,45.105469 l -0.246093,0.34375 0.257812,-0.335938 c -0.277344,-0.210937 -0.527344,-0.402343 -0.738281,-0.570312 -0.15625,-0.121094 -0.367188,-0.121094 -0.523438,0 -0.214843,0.167969 -0.460937,0.359375 -0.738281,0.570312 l 0.257812,0.335938 -0.246093,-0.34375 C 69.847656,49.195312 64.125,53.550781 58.191406,57.375 52.261719,61.195312 46.121094,64.484375 39.59375,66.453125 l 0.125,0.40625 -0.105469,-0.410156 c -0.05078,0.01172 -0.09766,0.01953 -0.148437,0.01953 -0.152344,0 -0.320313,-0.0625 -0.507813,-0.21875 -0.285156,-0.226562 -0.574219,-0.65625 -0.773437,-1.183594 -0.207032,-0.523437 -0.328125,-1.140625 -0.328125,-1.734375 0,-0.378906 0.05078,-0.746093 0.152343,-1.074219 l -0.402343,-0.128906 0.386719,0.167969 c 0.464843,-1.082031 1.097656,-1.949219 1.855468,-2.628906 0.753906,-0.679688 1.632813,-1.167969 2.601563,-1.484375 12.125,-3.945313 21.566406,-8.511719 31.035156,-15.335938 0.105469,-0.07813 0.171875,-0.199218 0.175781,-0.332031 0.0039,-0.128906 -0.05469,-0.257813 -0.15625,-0.339844 -0.566406,-0.457031 -1.046875,-0.960937 -1.375,-1.601562 l -0.01563,-0.02734 c -0.09375,-0.152344 -0.171875,-0.359375 -0.222656,-0.597656 -0.05469,-0.242188 -0.07813,-0.507813 -0.07813,-0.785157 -0.0039,-0.515624 0.09375,-1.046874 0.242188,-1.414062 0.07422,-0.179688 0.160156,-0.316406 0.230468,-0.386719 0.03516,-0.03516 0.0625,-0.05469 0.07813,-0.0625 l 0.02734,-0.0078 c 0.01172,0 0.03906,0 0.101563,0.04297 l 0.234374,-0.351563 -0.269531,0.324219 c 1.28125,1.070312 2.550781,2.089844 3.816407,3.066406 0.152343,0.117188 0.363281,0.117188 0.515624,0 1.265626,-0.976562 2.535157,-1.996094 3.816407,-3.066406 l -0.269531,-0.324219 0.234374,0.351563 c 0.0625,-0.04297 0.08984,-0.04297 0.09766,-0.04297 l 0.03125,0.0078 c 0.02734,0.01172 0.09375,0.0625 0.160156,0.167969 0.105469,0.152344 0.210937,0.410156 0.28125,0.710938 0.07031,0.300781 0.109375,0.648437 0.109375,0.988281 0,0.273437 -0.02734,0.542969 -0.07813,0.78125 -0.05078,0.238281 -0.128906,0.445312 -0.222656,0.597656 l -0.01563,0.02734 c -0.328125,0.640625 -0.808594,1.144531 -1.375,1.601562 -0.101563,0.08203 -0.160156,0.210938 -0.15625,0.339844 0.0039,0.132813 0.07031,0.253906 0.175781,0.332031 9.46875,6.824219 18.910156,11.390625 31.035151,15.335938 0.96485,0.316406 1.84766,0.804687 2.60156,1.484375 0.75782,0.679687 1.39063,1.546875 1.85547,2.628906 l 0.38672,-0.167969 -0.40234,0.128906 0.40234,-0.128906"
         fill-opacity="1"
         fill-rule="nonzero"
         id="path27" />
    </g>
    <path
       fill="#969092"
       d="m -77.546874,44.994795 h 176.80209 c 2.770844,0 5.432294,1.104168 7.390624,3.062501 1.96355,1.963536 3.0625,4.61979 3.0625,7.39063 v 20.906241 c 0,2.776054 -1.09895,5.432294 -3.0625,7.390627 -1.95833,1.963547 -4.61978,3.062507 -7.390624,3.062507 H -77.546874 C -83.317707,86.807301 -88,82.130221 -88,76.354167 V 55.447926 c 0,-5.77084 4.682293,-10.453131 10.453126,-10.453131 z m 0,0"
       fill-opacity="1"
       fill-rule="nonzero"
       id="path28"
       style="stroke-width:1.33333" />
    <g
       fill="#ff1616"
       fill-opacity="1"
       id="g31"
       transform="matrix(1.3333334,0,0,1.3333334,-93.5625,-84.598961)">
      <g
         transform="translate(12.012356,120.43574)"
         id="g30">
        <g
           id="g29">
          <path
             d="m 1.71875,0 v -1.640625 h 7.125 L 9.890625,-2.71875 V -5.609375 L 8.84375,-6.6875 H 3.25 L 1.21875,-8.71875 v -3.671875 L 3.25,-14.4375 h 7.6875 v 1.640625 H 4.0625 L 2.984375,-11.71875 3,-9.328125 4.0625,-8.25 h 5.578125 l 2.03125,2.0625 v 4.125 L 9.640625,0 Z m 0,0"
             id="path29" />
        </g>
      </g>
    </g>
    <g
       fill="#ff1616"
       fill-opacity="1"
       id="g34"
       transform="matrix(1.3333334,0,0,1.3333334,-93.5625,-84.598961)">
      <g
         transform="translate(24.905576,120.43574)"
         id="g33">
        <g
           id="g32">
          <path
             d="m 0.28125,0 4.875,-14.4375 H 7.921875 L 12.796875,0 H 10.9375 L 9.703125,-3.765625 H 3.375 L 2.15625,0 Z m 3.625,-5.328125 H 9.1875 L 6.765625,-12.75 H 6.3125 Z m 0,0"
             id="path31" />
        </g>
      </g>
    </g>
    <g
       fill="#ff1616"
       fill-opacity="1"
       id="g37"
       transform="matrix(1.3333334,0,0,1.3333334,-93.5625,-84.598961)">
      <g
         transform="translate(37.975147,120.43574)"
         id="g36">
        <g
           id="g35">
          <path
             d="M 3.484375,0 1.4375,-2.0625 v -12.375 h 1.78125 v 11.765625 l 1.078125,1.078125 h 5.1875 L 10.5625,-2.671875 V -14.4375 h 1.78125 v 12.375 L 10.28125,0 Z m 0,0"
             id="path34" />
        </g>
      </g>
    </g>
    <g
       fill="#ff1616"
       fill-opacity="1"
       id="g40"
       transform="matrix(1.3333334,0,0,1.3333334,-93.5625,-84.598961)">
      <g
         transform="translate(51.750118,120.43574)"
         id="g39">
        <g
           id="g38">
          <path
             d="m 1.703125,0 v -14.4375 h 2.4375 l 6.4375,11.609375 V -14.4375 h 1.78125 V 0 H 10.25 L 3.921875,-11.40625 h -0.4375 V 0 Z m 0,0"
             id="path37" />
        </g>
      </g>
    </g>
    <g
       fill="#ff1616"
       fill-opacity="1"
       id="g43"
       transform="matrix(1.3333334,0,0,1.3333334,-93.5625,-84.598961)">
      <g
         transform="translate(65.819008,120.43574)"
         id="g42">
        <g
           id="g41">
          <path
             d="M 3.34375,0 1.328125,-2.0625 v -10.328125 l 2.0625,-2.046875 H 10.25 l 2,2 -1.140625,1.15625 -1.5625,-1.578125 H 4.1875 l -1.078125,1.078125 v 9.109375 L 4.1875,-1.59375 H 8.515625 L 10.75,-3.65625 V -6.015625 H 7.421875 v -1.5625 H 12.25 V 0 h -1.5 V -1.671875 L 8.96875,0 Z m 0,0"
             id="path40" />
        </g>
      </g>
    </g>
    <g
       fill="#ffffff"
       fill-opacity="1"
       id="g46"
       transform="matrix(1.3333334,0,0,1.3333334,-93.5625,-84.598961)">
      <g
         transform="translate(79.753522,120.43574)"
         id="g45">
        <g
           id="g44">
          <path
             d="M 1.703125,0 V -14.4375 H 9.59375 l 2.046875,2.046875 V -7.78125 L 9.59375,-5.71875 H 9.546875 L 12.140625,0 h -1.96875 l -2.5625,-5.71875 h -4.125 V 0 Z m 1.78125,-7.3125 h 5.3125 l 1.0625,-1.078125 v -3.390625 l -1.0625,-1.078125 h -5.3125 z m 0,0"
             id="path43" />
        </g>
      </g>
    </g>
    <g
       fill="#ffffff"
       fill-opacity="1"
       id="g49"
       transform="matrix(1.3333334,0,0,1.3333334,-93.5625,-84.598961)">
      <g
         transform="translate(93.019035,120.43574)"
         id="g48">
        <g
           id="g47">
          <path
             d="m 3.390625,0 -2.0625,-2.0625 v -10.328125 l 2.0625,-2.046875 h 6.8125 l 2.0625,2.046875 V -2.0625 L 10.203125,0 Z M 4.1875,-1.59375 h 5.21875 l 1.078125,-1.078125 V -11.78125 L 9.40625,-12.859375 H 4.1875 l -1.078125,1.078125 v 9.109375 z m 0,0"
             id="path46" />
        </g>
      </g>
    </g>
    <g
       fill="#ffffff"
       fill-opacity="1"
       id="g52"
       transform="matrix(1.3333334,0,0,1.3333334,-93.5625,-84.598961)">
      <g
         transform="translate(106.61766,120.43574)"
         id="g51">
        <g
           id="g50">
          <path
             d="M 1.703125,0 V -14.4375 H 9.4375 l 2.046875,2.046875 V -9 l -0.90625,1.21875 1.671875,1.6875 V -2.0625 L 10.1875,0 Z m 1.78125,-8.390625 H 8.875 L 9.703125,-9.5 v -2.28125 l -1.0625,-1.09375 -5.15625,0.01563 z m 0,6.796875 h 5.90625 L 10.46875,-2.671875 V -5.625 L 9.328125,-6.796875 h -5.84375 z m 0,0"
             id="path49" />
        </g>
      </g>
    </g>
    <g
       fill="#ffffff"
       fill-opacity="1"
       id="g55"
       transform="matrix(1.3333334,0,0,1.3333334,-93.5625,-84.598961)">
      <g
         transform="translate(120.1379,120.43574)"
         id="g54">
        <g
           id="g53">
          <path
             d="m 3.390625,0 -2.0625,-2.0625 v -10.328125 l 2.0625,-2.046875 h 6.8125 l 2.0625,2.046875 V -2.0625 L 10.203125,0 Z M 4.1875,-1.59375 h 5.21875 l 1.078125,-1.078125 V -11.78125 L 9.40625,-12.859375 H 4.1875 l -1.078125,1.078125 v 9.109375 z m 0,0"
             id="path52" />
        </g>
      </g>
    </g>
    <g
       fill="#ffffff"
       fill-opacity="1"
       id="g58"
       transform="matrix(1.3333334,0,0,1.3333334,-93.5625,-84.598961)">
      <g
         transform="translate(133.73652,120.43574)"
         id="g57">
        <g
           id="g56">
          <path
             d="M 4.546875,0 V -12.796875 H 0.25 V -14.4375 h 10.375 v 1.640625 H 6.328125 V 0 Z m 0,0"
             id="path55" />
        </g>
      </g>
    </g>
    <g
       fill="#303030"
       fill-opacity="1"
       id="g61"
       transform="matrix(1.3333334,0,0,1.3333334,-93.5625,-84.598961)">
      <g
         transform="translate(21.21542,143.18949)"
         id="g60">
        <g
           id="g59">
          <path
             d="M 0.765625,0 C 0.710938,0 0.664062,-0.015625 0.625,-0.046875 0.59375,-0.0859375 0.578125,-0.140625 0.578125,-0.203125 v -5.09375 c 0,-0.050781 0.015625,-0.09375 0.046875,-0.125 0.039062,-0.039063 0.085938,-0.0625 0.140625,-0.0625 H 1.65625 c 0.050781,0 0.09375,0.023437 0.125,0.0625 0.039062,0.03125 0.0625,0.074219 0.0625,0.125 V -1.0625 h 2.4375 c 0.050781,0 0.09375,0.023438 0.125,0.0625 0.039062,0.03125 0.0625,0.078125 0.0625,0.140625 v 0.65625 c 0,0.0625 -0.023438,0.1171875 -0.0625,0.15625 C 4.375,-0.015625 4.332031,0 4.28125,0 Z m 0,0"
             id="path58" />
        </g>
      </g>
    </g>
    <g
       fill="#303030"
       fill-opacity="1"
       id="g64"
       transform="matrix(1.3333334,0,0,1.3333334,-93.5625,-84.598961)">
      <g
         transform="translate(28.958373,143.18949)"
         id="g63">
        <g
           id="g62">
          <path
             d="M 0.765625,0 C 0.710938,0 0.664062,-0.015625 0.625,-0.046875 0.59375,-0.0859375 0.578125,-0.140625 0.578125,-0.203125 v -5.09375 c 0,-0.050781 0.015625,-0.09375 0.046875,-0.125 0.039062,-0.039063 0.085938,-0.0625 0.140625,-0.0625 h 3.5625 c 0.0625,0 0.109375,0.023437 0.140625,0.0625 0.039062,0.03125 0.0625,0.074219 0.0625,0.125 v 0.625 c 0,0.0625 -0.023438,0.117187 -0.0625,0.15625 C 4.4375,-4.484375 4.390625,-4.46875 4.328125,-4.46875 H 1.78125 V -3.25 h 2.375 c 0.0625,0 0.109375,0.023438 0.140625,0.0625 0.039063,0.03125 0.0625,0.078125 0.0625,0.140625 v 0.578125 c 0,0.054688 -0.023437,0.101562 -0.0625,0.140625 -0.03125,0.03125 -0.078125,0.046875 -0.140625,0.046875 h -2.375 v 1.265625 h 2.609375 c 0.0625,0 0.109375,0.023437 0.140625,0.0625 0.039062,0.03125 0.0625,0.074219 0.0625,0.125 v 0.625 c 0,0.0625 -0.023438,0.1171875 -0.0625,0.15625 C 4.5,-0.015625 4.453125,0 4.390625,0 Z m 0,0"
             id="path61" />
        </g>
      </g>
    </g>
    <g
       fill="#303030"
       fill-opacity="1"
       id="g67"
       transform="matrix(1.3333334,0,0,1.3333334,-93.5625,-84.598961)">
      <g
         transform="translate(37.038238,143.18949)"
         id="g66">
        <g
           id="g65">
          <path
             d="m 0.265625,0 c -0.054687,0 -0.09375,-0.015625 -0.125,-0.046875 -0.03125,-0.0390625 -0.046875,-0.082031 -0.046875,-0.125 0,-0.019531 0.0039062,-0.039063 0.015625,-0.0625 L 1.96875,-5.28125 c 0.019531,-0.050781 0.050781,-0.097656 0.09375,-0.140625 0.050781,-0.039063 0.117188,-0.0625 0.203125,-0.0625 h 1 c 0.082031,0 0.144531,0.023437 0.1875,0.0625 0.050781,0.042969 0.085937,0.089844 0.109375,0.140625 l 1.859375,5.046875 c 0.00781,0.023437 0.015625,0.042969 0.015625,0.0625 0,0.042969 -0.023438,0.0859375 -0.0625,0.125 C 5.34375,-0.015625 5.304688,0 5.265625,0 H 4.4375 C 4.363281,0 4.304688,-0.015625 4.265625,-0.046875 4.234375,-0.0859375 4.210938,-0.125 4.203125,-0.15625 l -0.34375,-0.875 H 1.65625 l -0.328125,0.875 C 1.304688,-0.125 1.28125,-0.0859375 1.25,-0.046875 1.21875,-0.015625 1.160156,0 1.078125,0 Z m 1.6875,-2.046875 H 3.5625 l -0.796875,-2.25 z m 0,0"
             id="path64" />
        </g>
      </g>
    </g>
    <g
       fill="#303030"
       fill-opacity="1"
       id="g70"
       transform="matrix(1.3333334,0,0,1.3333334,-93.5625,-84.598961)">
      <g
         transform="translate(45.690075,143.18949)"
         id="g69">
        <g
           id="g68">
          <path
             d="M 0.765625,0 C 0.710938,0 0.664062,-0.015625 0.625,-0.046875 0.59375,-0.0859375 0.578125,-0.140625 0.578125,-0.203125 v -5.09375 c 0,-0.050781 0.015625,-0.09375 0.046875,-0.125 0.039062,-0.039063 0.085938,-0.0625 0.140625,-0.0625 h 2.09375 c 0.644531,0 1.15625,0.152344 1.53125,0.453125 0.382813,0.292969 0.578125,0.726562 0.578125,1.296875 0,0.375 -0.09375,0.695313 -0.28125,0.953125 -0.179688,0.25 -0.421875,0.4375 -0.734375,0.5625 L 5.0625,-0.25 c 0.019531,0.03125 0.03125,0.058594 0.03125,0.078125 0,0.042969 -0.023438,0.0859375 -0.0625,0.125 C 5,-0.015625 4.960938,0 4.921875,0 h -0.875 C 3.953125,0 3.878906,-0.0234375 3.828125,-0.078125 3.785156,-0.128906 3.753906,-0.175781 3.734375,-0.21875 L 2.78125,-2.015625 H 1.828125 v 1.8125 c 0,0.0625 -0.023437,0.1171875 -0.0625,0.15625 C 1.734375,-0.015625 1.6875,0 1.625,0 Z m 1.0625,-3 H 2.84375 c 0.28125,0 0.488281,-0.0625 0.625,-0.1875 0.132812,-0.132812 0.203125,-0.320312 0.203125,-0.5625 0,-0.238281 -0.070313,-0.425781 -0.203125,-0.5625 C 3.332031,-4.445312 3.125,-4.515625 2.84375,-4.515625 H 1.828125 Z m 0,0"
             id="path67" />
        </g>
      </g>
    </g>
    <g
       fill="#303030"
       fill-opacity="1"
       id="g73"
       transform="matrix(1.3333334,0,0,1.3333334,-93.5625,-84.598961)">
      <g
         transform="translate(54.169541,143.18949)"
         id="g72">
        <g
           id="g71">
          <path
             d="M 0.765625,0 C 0.710938,0 0.664062,-0.015625 0.625,-0.046875 0.59375,-0.0859375 0.578125,-0.140625 0.578125,-0.203125 v -5.09375 c 0,-0.050781 0.015625,-0.09375 0.046875,-0.125 0.039062,-0.039063 0.085938,-0.0625 0.140625,-0.0625 h 0.71875 c 0.082031,0 0.140625,0.023437 0.171875,0.0625 0.039062,0.03125 0.066406,0.058594 0.078125,0.078125 l 2.078125,3.25 v -3.203125 c 0,-0.050781 0.019531,-0.09375 0.0625,-0.125 0.039062,-0.039063 0.085938,-0.0625 0.140625,-0.0625 H 4.8125 c 0.0625,0 0.109375,0.023437 0.140625,0.0625 0.039063,0.03125 0.0625,0.074219 0.0625,0.125 v 5.09375 c 0,0.054687 -0.023437,0.101563 -0.0625,0.140625 C 4.921875,-0.0195312 4.875,0 4.8125,0 H 4.09375 C 4.019531,0 3.960938,-0.0195312 3.921875,-0.0625 3.878906,-0.101562 3.851562,-0.128906 3.84375,-0.140625 l -2.078125,-3.15625 v 3.09375 c 0,0.0625 -0.023437,0.1171875 -0.0625,0.15625 C 1.671875,-0.015625 1.628906,0 1.578125,0 Z m 0,0"
             id="path70" />
        </g>
      </g>
    </g>
    <g
       fill="#303030"
       fill-opacity="1"
       id="g76"
       transform="matrix(1.3333334,0,0,1.3333334,-93.5625,-84.598961)">
      <g
         transform="translate(62.891896,143.18949)"
         id="g75">
        <g
           id="g74">
          <path
             d="M 0.765625,0 C 0.710938,0 0.664062,-0.015625 0.625,-0.046875 0.59375,-0.0859375 0.578125,-0.140625 0.578125,-0.203125 v -5.09375 c 0,-0.050781 0.015625,-0.09375 0.046875,-0.125 0.039062,-0.039063 0.085938,-0.0625 0.140625,-0.0625 h 0.90625 c 0.050781,0 0.09375,0.023437 0.125,0.0625 0.039063,0.03125 0.0625,0.074219 0.0625,0.125 v 5.09375 c 0,0.0625 -0.023437,0.1171875 -0.0625,0.15625 C 1.765625,-0.015625 1.722656,0 1.671875,0 Z m 0,0"
             id="path73" />
        </g>
      </g>
    </g>
    <g
       fill="#303030"
       fill-opacity="1"
       id="g79"
       transform="matrix(1.3333334,0,0,1.3333334,-93.5625,-84.598961)">
      <g
         transform="translate(68.464492,143.18949)"
         id="g78">
        <g
           id="g77">
          <path
             d="M 0.765625,0 C 0.710938,0 0.664062,-0.015625 0.625,-0.046875 0.59375,-0.0859375 0.578125,-0.140625 0.578125,-0.203125 v -5.09375 c 0,-0.050781 0.015625,-0.09375 0.046875,-0.125 0.039062,-0.039063 0.085938,-0.0625 0.140625,-0.0625 h 0.71875 c 0.082031,0 0.140625,0.023437 0.171875,0.0625 0.039062,0.03125 0.066406,0.058594 0.078125,0.078125 l 2.078125,3.25 v -3.203125 c 0,-0.050781 0.019531,-0.09375 0.0625,-0.125 0.039062,-0.039063 0.085938,-0.0625 0.140625,-0.0625 H 4.8125 c 0.0625,0 0.109375,0.023437 0.140625,0.0625 0.039063,0.03125 0.0625,0.074219 0.0625,0.125 v 5.09375 c 0,0.054687 -0.023437,0.101563 -0.0625,0.140625 C 4.921875,-0.0195312 4.875,0 4.8125,0 H 4.09375 C 4.019531,0 3.960938,-0.0195312 3.921875,-0.0625 3.878906,-0.101562 3.851562,-0.128906 3.84375,-0.140625 l -2.078125,-3.15625 v 3.09375 c 0,0.0625 -0.023437,0.1171875 -0.0625,0.15625 C 1.671875,-0.015625 1.628906,0 1.578125,0 Z m 0,0"
             id="path76" />
        </g>
      </g>
    </g>
    <g
       fill="#303030"
       fill-opacity="1"
       id="g82"
       transform="matrix(1.3333334,0,0,1.3333334,-93.5625,-84.598961)">
      <g
         transform="translate(77.186848,143.18949)"
         id="g81">
        <g
           id="g80">
          <path
             d="m 2.78125,0.078125 c -0.492188,0 -0.914062,-0.08203125 -1.265625,-0.25 -0.34375,-0.164063 -0.609375,-0.40625 -0.796875,-0.71875 -0.1875,-0.3125 -0.292969,-0.695313 -0.3125,-1.15625 0,-0.21875 0,-0.453125 0,-0.703125 0,-0.257812 0,-0.503906 0,-0.734375 0.019531,-0.445313 0.125,-0.820313 0.3125,-1.125 0.1875,-0.3125 0.457031,-0.546875 0.8125,-0.703125 0.351562,-0.164062 0.769531,-0.25 1.25,-0.25 0.382812,0 0.722656,0.054688 1.015625,0.15625 0.300781,0.09375 0.550781,0.21875 0.75,0.375 C 4.742188,-4.875 4.894531,-4.703125 5,-4.515625 c 0.101562,0.1875 0.15625,0.371094 0.15625,0.546875 0,0.054688 -0.015625,0.09375 -0.046875,0.125 -0.03125,0.03125 -0.074219,0.046875 -0.125,0.046875 h -0.96875 c -0.054687,0 -0.09375,-0.00781 -0.125,-0.03125 C 3.859375,-3.847656 3.832031,-3.878906 3.8125,-3.921875 3.78125,-4.015625 3.722656,-4.109375 3.640625,-4.203125 3.554688,-4.304688 3.445312,-4.390625 3.3125,-4.453125 3.175781,-4.515625 3,-4.546875 2.78125,-4.546875 c -0.324219,0 -0.585938,0.089844 -0.78125,0.265625 -0.1875,0.167969 -0.292969,0.445312 -0.3125,0.828125 -0.011719,0.449219 -0.011719,0.90625 0,1.375 0.019531,0.40625 0.128906,0.699219 0.328125,0.875 0.195313,0.179687 0.457031,0.265625 0.78125,0.265625 0.21875,0 0.410156,-0.035156 0.578125,-0.109375 C 3.539062,-1.128906 3.675781,-1.25 3.78125,-1.40625 3.882812,-1.5625 3.9375,-1.769531 3.9375,-2.03125 v -0.1875 H 3.078125 c -0.054687,0 -0.101563,-0.019531 -0.140625,-0.0625 C 2.90625,-2.320312 2.890625,-2.367188 2.890625,-2.421875 v -0.5 c 0,-0.050781 0.015625,-0.09375 0.046875,-0.125 0.039062,-0.039063 0.085938,-0.0625 0.140625,-0.0625 H 5 c 0.0625,0 0.109375,0.023437 0.140625,0.0625 0.039063,0.03125 0.0625,0.074219 0.0625,0.125 V -2.0625 c 0,0.449219 -0.101563,0.835938 -0.296875,1.15625 -0.199219,0.3125 -0.480469,0.558594 -0.84375,0.734375 -0.367188,0.16796875 -0.792969,0.25 -1.28125,0.25 z m 0,0"
             id="path79" />
        </g>
      </g>
    </g>
    <g
       fill="#303030"
       fill-opacity="1"
       id="g88"
       transform="matrix(1.3333334,0,0,1.3333334,-93.5625,-84.598961)">
      <g
         transform="translate(90.753118,143.18949)"
         id="g87">
        <g
           id="g86">
          <path
             d="m 0.265625,0 c -0.054687,0 -0.09375,-0.015625 -0.125,-0.046875 -0.03125,-0.0390625 -0.046875,-0.082031 -0.046875,-0.125 0,-0.019531 0.0039062,-0.039063 0.015625,-0.0625 L 1.96875,-5.28125 c 0.019531,-0.050781 0.050781,-0.097656 0.09375,-0.140625 0.050781,-0.039063 0.117188,-0.0625 0.203125,-0.0625 h 1 c 0.082031,0 0.144531,0.023437 0.1875,0.0625 0.050781,0.042969 0.085937,0.089844 0.109375,0.140625 l 1.859375,5.046875 c 0.00781,0.023437 0.015625,0.042969 0.015625,0.0625 0,0.042969 -0.023438,0.0859375 -0.0625,0.125 C 5.34375,-0.015625 5.304688,0 5.265625,0 H 4.4375 C 4.363281,0 4.304688,-0.015625 4.265625,-0.046875 4.234375,-0.0859375 4.210938,-0.125 4.203125,-0.15625 l -0.34375,-0.875 H 1.65625 l -0.328125,0.875 C 1.304688,-0.125 1.28125,-0.0859375 1.25,-0.046875 1.21875,-0.015625 1.160156,0 1.078125,0 Z m 1.6875,-2.046875 H 3.5625 l -0.796875,-2.25 z m 0,0"
             id="path85" />
        </g>
      </g>
    </g>
    <g
       fill="#303030"
       fill-opacity="1"
       id="g91"
       transform="matrix(1.3333334,0,0,1.3333334,-93.5625,-84.598961)">
      <g
         transform="translate(99.404953,143.18949)"
         id="g90">
        <g
           id="g89">
          <path
             d="m 2.5625,0.078125 c -0.511719,0 -0.933594,-0.07421875 -1.265625,-0.21875 C 0.960938,-0.285156 0.707031,-0.472656 0.53125,-0.703125 0.363281,-0.941406 0.273438,-1.195312 0.265625,-1.46875 0.265625,-1.507812 0.28125,-1.546875 0.3125,-1.578125 0.34375,-1.609375 0.378906,-1.625 0.421875,-1.625 h 0.84375 c 0.070313,0 0.125,0.015625 0.15625,0.046875 0.039063,0.023437 0.078125,0.054687 0.109375,0.09375 0.03125,0.09375 0.085938,0.183594 0.171875,0.265625 0.082031,0.085938 0.191406,0.152344 0.328125,0.203125 0.144531,0.054687 0.320312,0.078125 0.53125,0.078125 0.332031,0 0.582031,-0.050781 0.75,-0.15625 C 3.488281,-1.207031 3.578125,-1.359375 3.578125,-1.546875 3.578125,-1.679688 3.53125,-1.789062 3.4375,-1.875 3.34375,-1.957031 3.195312,-2.03125 3,-2.09375 2.8125,-2.164062 2.554688,-2.238281 2.234375,-2.3125 1.835938,-2.40625 1.5,-2.515625 1.21875,-2.640625 0.945312,-2.773438 0.742188,-2.945312 0.609375,-3.15625 0.472656,-3.375 0.40625,-3.640625 0.40625,-3.953125 c 0,-0.3125 0.082031,-0.585937 0.25,-0.828125 0.175781,-0.25 0.421875,-0.441406 0.734375,-0.578125 0.3125,-0.132813 0.6875,-0.203125 1.125,-0.203125 0.34375,0 0.648437,0.046875 0.921875,0.140625 0.269531,0.09375 0.492188,0.21875 0.671875,0.375 0.1875,0.148437 0.328125,0.308594 0.421875,0.484375 0.09375,0.167969 0.140625,0.328125 0.140625,0.484375 0,0.054687 -0.015625,0.101563 -0.046875,0.140625 -0.023438,0.03125 -0.058594,0.046875 -0.109375,0.046875 H 3.625 c -0.054688,0 -0.101562,-0.00781 -0.140625,-0.03125 -0.042969,-0.03125 -0.078125,-0.070313 -0.109375,-0.125 -0.023438,-0.132813 -0.109375,-0.25 -0.265625,-0.34375 -0.15625,-0.101563 -0.355469,-0.15625 -0.59375,-0.15625 -0.261719,0 -0.46875,0.046875 -0.625,0.140625 -0.148437,0.085938 -0.21875,0.226562 -0.21875,0.421875 0,0.125 0.035156,0.234375 0.109375,0.328125 0.082031,0.085938 0.210938,0.15625 0.390625,0.21875 0.1875,0.0625 0.429687,0.132812 0.734375,0.203125 0.445312,0.09375 0.816406,0.210937 1.109375,0.34375 0.289063,0.136719 0.503906,0.308594 0.640625,0.515625 0.132812,0.199219 0.203125,0.460938 0.203125,0.78125 0,0.34375 -0.101563,0.640625 -0.296875,0.890625 C 4.375,-0.453125 4.101562,-0.257812 3.75,-0.125 3.40625,0.0078125 3.007812,0.078125 2.5625,0.078125 Z m 0,0"
             id="path88" />
        </g>
      </g>
    </g>
    <g
       fill="#303030"
       fill-opacity="1"
       id="g97"
       transform="matrix(1.3333334,0,0,1.3333334,-93.5625,-84.598961)">
      <g
         transform="translate(112.51678,143.18949)"
         id="g96">
        <g
           id="g95">
          <path
             d="M 1.46875,0 C 1.382812,0 1.316406,-0.0195312 1.265625,-0.0625 1.222656,-0.113281 1.191406,-0.175781 1.171875,-0.25 l -0.875,-5.015625 C 0.285156,-5.273438 0.28125,-5.285156 0.28125,-5.296875 c 0,-0.00781 0,-0.019531 0,-0.03125 0,-0.039063 0.015625,-0.078125 0.046875,-0.109375 0.03125,-0.03125 0.070313,-0.046875 0.125,-0.046875 H 1.28125 c 0.132812,0 0.207031,0.054687 0.21875,0.15625 l 0.59375,3.3125 0.625,-2.0625 c 0.019531,-0.039063 0.046875,-0.082031 0.078125,-0.125 0.039063,-0.050781 0.101563,-0.078125 0.1875,-0.078125 H 3.46875 c 0.082031,0 0.140625,0.027344 0.171875,0.078125 0.039063,0.042969 0.070313,0.085937 0.09375,0.125 L 4.375,-2.03125 4.953125,-5.328125 c 0.00781,-0.101563 0.082031,-0.15625 0.21875,-0.15625 h 0.84375 c 0.039063,0 0.078125,0.015625 0.109375,0.046875 0.03125,0.03125 0.046875,0.070312 0.046875,0.109375 0,0.011719 0,0.023437 0,0.03125 0,0.011719 0,0.023437 0,0.03125 L 5.28125,-0.25 C 5.269531,-0.175781 5.238281,-0.113281 5.1875,-0.0625 5.132812,-0.0195312 5.066406,0 4.984375,0 H 4.34375 C 4.257812,0 4.195312,-0.0195312 4.15625,-0.0625 4.113281,-0.113281 4.082031,-0.160156 4.0625,-0.203125 l -0.828125,-2.4375 -0.84375,2.4375 C 2.378906,-0.160156 2.347656,-0.113281 2.296875,-0.0625 2.253906,-0.0195312 2.191406,0 2.109375,0 Z m 0,0"
             id="path94" />
        </g>
      </g>
    </g>
    <g
       fill="#303030"
       fill-opacity="1"
       id="g100"
       transform="matrix(1.3333334,0,0,1.3333334,-93.5625,-84.598961)">
      <g
         transform="translate(122.10101,143.18949)"
         id="g99">
        <g
           id="g98">
          <path
             d="M 0.765625,0 C 0.710938,0 0.664062,-0.015625 0.625,-0.046875 0.59375,-0.0859375 0.578125,-0.140625 0.578125,-0.203125 v -5.09375 c 0,-0.050781 0.015625,-0.09375 0.046875,-0.125 0.039062,-0.039063 0.085938,-0.0625 0.140625,-0.0625 h 0.90625 c 0.050781,0 0.09375,0.023437 0.125,0.0625 0.039063,0.03125 0.0625,0.074219 0.0625,0.125 v 5.09375 c 0,0.0625 -0.023437,0.1171875 -0.0625,0.15625 C 1.765625,-0.015625 1.722656,0 1.671875,0 Z m 0,0"
             id="path97" />
        </g>
      </g>
    </g>
    <g
       fill="#303030"
       fill-opacity="1"
       id="g103"
       transform="matrix(1.3333334,0,0,1.3333334,-93.5625,-84.598961)">
      <g
         transform="translate(127.6736,143.18949)"
         id="g102">
        <g
           id="g101">
          <path
             d="M 0.765625,0 C 0.710938,0 0.664062,-0.015625 0.625,-0.046875 0.59375,-0.0859375 0.578125,-0.140625 0.578125,-0.203125 v -5.09375 c 0,-0.050781 0.015625,-0.09375 0.046875,-0.125 0.039062,-0.039063 0.085938,-0.0625 0.140625,-0.0625 H 1.65625 c 0.050781,0 0.09375,0.023437 0.125,0.0625 0.039062,0.03125 0.0625,0.074219 0.0625,0.125 V -1.0625 h 2.4375 c 0.050781,0 0.09375,0.023438 0.125,0.0625 0.039062,0.03125 0.0625,0.078125 0.0625,0.140625 v 0.65625 c 0,0.0625 -0.023438,0.1171875 -0.0625,0.15625 C 4.375,-0.015625 4.332031,0 4.28125,0 Z m 0,0"
             id="path100" />
        </g>
      </g>
    </g>
    <g
       fill="#303030"
       fill-opacity="1"
       id="g106"
       transform="matrix(1.3333334,0,0,1.3333334,-93.5625,-84.598961)">
      <g
         transform="translate(135.41655,143.18949)"
         id="g105">
        <g
           id="g104">
          <path
             d="M 0.765625,0 C 0.710938,0 0.664062,-0.015625 0.625,-0.046875 0.59375,-0.0859375 0.578125,-0.140625 0.578125,-0.203125 v -5.09375 c 0,-0.050781 0.015625,-0.09375 0.046875,-0.125 0.039062,-0.039063 0.085938,-0.0625 0.140625,-0.0625 H 1.65625 c 0.050781,0 0.09375,0.023437 0.125,0.0625 0.039062,0.03125 0.0625,0.074219 0.0625,0.125 V -1.0625 h 2.4375 c 0.050781,0 0.09375,0.023438 0.125,0.0625 0.039062,0.03125 0.0625,0.078125 0.0625,0.140625 v 0.65625 c 0,0.0625 -0.023438,0.1171875 -0.0625,0.15625 C 4.375,-0.015625 4.332031,0 4.28125,0 Z m 0,0"
             id="path103" />
        </g>
      </g>
    </g>
  </g>
  <metadata
     id="metadata6">
    <rdf:RDF>
      <cc:Work
         rdf:about="">
        <dc:title>SaungStudioDesktop</dc:title>
      </cc:Work>
    </rdf:RDF>
  </metadata>
</svg>
